<svg xmlns="http://www.w3.org/2000/svg" width="73.129" height="71.664" viewBox="0 0 73.129 71.664"><defs><style>.a{fill:#1176b0;}</style></defs><g transform="translate(-204 -1046.004)"><path class="a" d="M387.123,270.6a1.064,1.064,0,0,0-1.064,1.064,1.351,1.351,0,1,1-2.7,0,1.064,1.064,0,1,0-2.128,0,3.48,3.48,0,1,0,6.96,0,1.064,1.064,0,0,0-1.065-1.064Z" transform="translate(-122.778 813.327)"/><path class="a" d="M70.336,43.211l-3-.961a1.253,1.253,0,0,1-.808-.819,19.313,19.313,0,0,0-2.832-5.6A20.552,20.552,0,0,0,61.809,33.6a26.4,26.4,0,0,0,.651-6.028c-.045-2.712-.587-4.3-1.657-4.862-.576-.3-2.333-1.22-11.824,3.125a3.453,3.453,0,0,0-.629.375c-.64-.172-1.294-.331-1.952-.474l-.241-.049a14.5,14.5,0,0,0,1.3-5.39,1.065,1.065,0,1,0-2.127-.1,12.383,12.383,0,0,1-8.1,11.073,30.863,30.863,0,0,0-8.566,0,12.393,12.393,0,1,1,15.36-17.205,1.065,1.065,0,1,0,1.9-.961A14.527,14.527,0,1,0,25.24,31.956h0q-.992.258-1.968.582a1.064,1.064,0,1,0,.675,2.019,28.561,28.561,0,0,1,18,0,1.064,1.064,0,1,0,.675-2.019q-.974-.326-1.968-.582h0a14.511,14.511,0,0,0,4.418-4.319c.293.057.585.117.872.179q.573.124,1.14.266c-.012.046-.024.093-.034.137a12.692,12.692,0,0,0,.1,6.474,7.7,7.7,0,0,0,2.823,3.972,8.953,8.953,0,0,0,5.238,1.662,7.023,7.023,0,0,0,3.4-.788,6.481,6.481,0,0,0,2.5-3.553q.46.537.872,1.1a17.185,17.185,0,0,1,2.52,4.984,3.385,3.385,0,0,0,2.19,2.208l3,.961A1.885,1.885,0,0,1,71,47.038v4.967a1.885,1.885,0,0,1-1.314,1.8l-4.827,1.546a3.288,3.288,0,0,0-1.84,1.494,21.212,21.212,0,0,1-8.861,8.06,1.668,1.668,0,0,0-.875,1.176l-1.546,8.185a.48.48,0,0,1-.47.389H46.244a.48.48,0,0,1-.47-.389l-.856-4.523a1.672,1.672,0,0,0-1.9-1.345,44.487,44.487,0,0,1-6.63.493,42.428,42.428,0,0,1-4.877-.275,1.686,1.686,0,0,0-1.844,1.353l-.813,4.3a.48.48,0,0,1-.47.389H23.356a.48.48,0,0,1-.47-.393L21.4,66.532a1.67,1.67,0,0,0-.859-1.162c-6.791-3.626-10.381-9.682-10.381-17.515a20.459,20.459,0,0,1,2.574-10.4,18.568,18.568,0,0,1,6.918-6.75,1.064,1.064,0,1,0-1.066-1.843A20.257,20.257,0,0,0,8.3,43.991h0c-.1-.01-.206-.018-.307-.029a5.3,5.3,0,0,0-.39-2.123,4.359,4.359,0,0,0-3.232-2.822,2.941,2.941,0,0,0-2.77,1.235,2.8,2.8,0,0,0-.533,3.058c.536,1.1,1.914,1.886,4.2,2.377q-.094.141-.206.283a5.222,5.222,0,0,1-3.976,2.1A1.117,1.117,0,0,0,0,49.184v0A1.115,1.115,0,0,0,1.068,50.3q.115.005.24.005c1.308,0,3.407-.48,5.422-3.011a6.07,6.07,0,0,0,.777-1.255q.3.034.579.059c-.036.576-.056,1.162-.056,1.758A21.932,21.932,0,0,0,11.168,59.6a21.516,21.516,0,0,0,8.18,7.544l1.447,7.515a2.608,2.608,0,0,0,2.561,2.122h5.026a2.608,2.608,0,0,0,2.561-2.122l.736-3.886a44.853,44.853,0,0,0,4.709.244,46.756,46.756,0,0,0,6.52-.454l.775,4.1a2.608,2.608,0,0,0,2.561,2.122h5.026a2.608,2.608,0,0,0,2.561-2.122l1.505-7.968a23.2,23.2,0,0,0,9.528-8.781,1.167,1.167,0,0,1,.647-.533l4.826-1.546a4.007,4.007,0,0,0,2.793-3.828V47.038A4.007,4.007,0,0,0,70.336,43.211ZM60.171,30.562c-.412,3.5-1.51,6.5-2.613,7.125a6.512,6.512,0,0,1-6.328-.743c-2.176-1.591-2.9-4.455-2.092-8.285h0a1.284,1.284,0,0,1,.73-.892c5.328-2.439,8.4-3.237,9.539-3.237a1.113,1.113,0,0,1,.386.051C60.135,24.95,60.584,27.027,60.171,30.562ZM2.988,42.379c-.11-.227.15-.627.314-.844a.849.849,0,0,1,.686-.416.8.8,0,0,1,.107.008,2.32,2.32,0,0,1,1.538,1.51,3.232,3.232,0,0,1,.222,1C4.381,43.332,3.237,42.891,2.988,42.379Z" transform="translate(204 1040.885)"/><path class="a" d="M207.853,59.431V55.622c1.314.094,1.8.694,2.252.694.563,0,.824-.713.824-1.069,0-.92-1.8-1.314-3.077-1.351v-.506c0-.225-.281-.432-.563-.432a.5.5,0,0,0-.544.432v.544c-1.784.187-3.565,1.126-3.565,3.49,0,2.4,1.876,3.077,3.565,3.677v4.409c-1.914-.15-2.421-1.463-3.04-1.463-.469,0-.863.618-.863,1.069,0,.919,1.578,2.176,3.9,2.214h0v.581a.5.5,0,0,0,.544.432c.281,0,.563-.206.563-.432v-.638a3.637,3.637,0,0,0,3.415-3.865C211.268,60.856,209.486,60.031,207.853,59.431Zm-.994-.356c-.994-.375-1.8-.769-1.8-1.839,0-.976.75-1.441,1.8-1.578Zm.882,6.4V61.513a2.194,2.194,0,0,1,1.651,2.1,1.784,1.784,0,0,1-1.651,1.857Z" transform="translate(30.128 999.877)"/></g></svg>